<svg width="22" height="18" viewBox="0 0 22 18" fill="none" xmlns="http://www.w3.org/2000/svg">
<path d="M4.76818 1.51265C3.98233 1.6347 2.24206 2.20798 1.36778 3.02968C0.935935 3.43554 0.969508 4.38397 1.04786 5.30738C1.10564 5.98842 1.60104 6.31955 1.95598 6.54516C2.80491 7.08478 4.08917 6.93721 5.88761 6.56982C7.34716 6.27166 8.56211 5.3382 9.41147 4.57999C10.1769 3.8967 10.3867 2.99577 10.3285 2.27825C10.2671 1.52115 9.5189 1.18471 9.06484 1.04108C7.97807 0.89622 6.12265 1.14033 4.52246 1.65258C3.82326 1.92072 3.35318 2.20551 2.63143 2.86879" stroke="currentColor" stroke-width="2" stroke-linecap="round"/>
<path d="M18.7758 2.37564C17.1637 2.25236 14.6257 2.33373 13.5764 2.907C12.4228 3.53717 12.1305 5.04108 12.0486 6.7868C12.03 7.18293 12.1661 7.42542 12.3436 7.67322C13.2045 8.87536 15.4425 8.6632 17.5412 8.3365C19.3494 8.05502 19.8014 6.73502 20.1991 6.03599C20.4337 5.62365 20.4377 4.96834 20.3006 4.27116C18.98 3.23987 16.9239 2.99207 15.8906 3.13508C15.6526 3.19672 15.3784 3.27809 14.8584 3.6085" stroke="currentColor" stroke-width="2" stroke-linecap="round"/>
<path d="M2.39405 12.2385C2.39286 12.5233 2.86651 13.427 3.93251 14.5353C5.07524 15.7234 6.81713 16.2625 9.03104 16.7575C12.6386 16.8827 14.6875 16.4746 15.8651 16.1029C16.0052 15.9802 16.0835 15.7768 16.1642 15.3206" stroke="currentColor" stroke-width="2" stroke-linecap="round"/>
</svg>
