<svg width="0.8em" height="0.8em" viewBox="0 0 19 16" fill="none" xmlns="http://www.w3.org/2000/svg">
<path d="M18.7509 7.87601C18.7509 8.17438 18.6324 8.46053 18.4214 8.67151C18.2104 8.88249 17.9243 9.00101 17.6259 9.00101H3.84464L8.67464 13.8301C8.88598 14.0414 9.00471 14.3281 9.00471 14.627C9.00471 14.9258 8.88598 15.2125 8.67464 15.4238C8.46329 15.6352 8.17665 15.7539 7.87776 15.7539C7.57888 15.7539 7.29223 15.6352 7.08089 15.4238L0.330887 8.67383C0.226007 8.56931 0.142791 8.44512 0.0860095 8.30837C0.0292285 8.17163 0 8.02502 0 7.87695C0 7.72889 0.0292285 7.58228 0.0860095 7.44553C0.142791 7.30878 0.226007 7.18459 0.330887 7.08008L7.08089 0.330076C7.18553 0.225429 7.30977 0.142418 7.4465 0.0857838C7.58322 0.0291492 7.72977 0 7.87776 0C8.02575 0 8.1723 0.0291492 8.30903 0.0857838C8.44576 0.142418 8.56999 0.225429 8.67464 0.330076C8.77928 0.434723 8.86229 0.558958 8.91893 0.695686C8.97556 0.832414 9.00471 0.978958 9.00471 1.12695C9.00471 1.27494 8.97556 1.42149 8.91893 1.55822C8.86229 1.69495 8.77928 1.81918 8.67464 1.92383L3.84464 6.75101H17.6259C17.9243 6.75101 18.2104 6.86954 18.4214 7.08052C18.6324 7.2915 18.7509 7.57765 18.7509 7.87601Z" fill="currentColor"/>
</svg>
